<?xml version="1.0" encoding="UTF-8" standalone="no"?>
<!DOCTYPE svg PUBLIC "-//W3C//DTD SVG 1.1//EN"
 "http://www.w3.org/Graphics/SVG/1.1/DTD/svg11.dtd">
<!-- Generated by graphviz version 2.40.1 (20161225.0304)
 -->
<!-- Title: dependencies Pages: 1 -->
<svg width="652pt" height="211pt"
 viewBox="0.00 0.00 652.00 211.00" xmlns="http://www.w3.org/2000/svg" xmlns:xlink="http://www.w3.org/1999/xlink">
<g id="graph0" class="graph" transform="scale(1 1) rotate(0) translate(4 207)">
<title>dependencies</title>
<polygon fill="#ffffff" stroke="transparent" points="-4,4 -4,-207 648,-207 648,4 -4,4"/>
<text text-anchor="start" x="301.0091" y="-42.4" font-family="sans-serif" font-weight="bold" font-size="14.00" fill="#000000">Legend</text>
<polygon fill="#ffffb3" stroke="transparent" points="88,-10 88,-30 108,-30 108,-10 88,-10"/>
<text text-anchor="start" x="111.629" y="-15.4" font-family="sans-serif" font-size="14.00" fill="#000000"> &#160;Declarations</text>
<polygon fill="#8dd3c7" stroke="transparent" points="201,-10 201,-30 221,-30 221,-10 201,-10"/>
<text text-anchor="start" x="224.7251" y="-15.4" font-family="sans-serif" font-size="14.00" fill="#000000"> &#160;Module</text>
<polygon fill="#80b1d3" stroke="transparent" points="287,-10 287,-30 307,-30 307,-10 287,-10"/>
<text text-anchor="start" x="310.7812" y="-15.4" font-family="sans-serif" font-size="14.00" fill="#000000"> &#160;Bootstrap</text>
<polygon fill="#fdb462" stroke="transparent" points="384,-10 384,-30 404,-30 404,-10 384,-10"/>
<text text-anchor="start" x="407.6732" y="-15.4" font-family="sans-serif" font-size="14.00" fill="#000000"> &#160;Providers</text>
<polygon fill="#fb8072" stroke="transparent" points="480,-10 480,-30 500,-30 500,-10 480,-10"/>
<text text-anchor="start" x="503.7258" y="-15.4" font-family="sans-serif" font-size="14.00" fill="#000000"> &#160;Exports</text>
<g id="clust1" class="cluster">
<title>cluster_Skeleton1Module</title>
<polygon fill="none" stroke="#000000" stroke-dasharray="1,5" points="8,-70 8,-195 636,-195 636,-70 8,-70"/>
</g>
<g id="clust2" class="cluster">
<title>cluster_Skeleton1Module_declarations</title>
<polygon fill="none" stroke="#000000" points="436,-78 436,-130 628,-130 628,-78 436,-78"/>
</g>
<g id="clust4" class="cluster">
<title>cluster_Skeleton1Module_imports</title>
<polygon fill="none" stroke="#000000" points="252,-78 252,-130 428,-130 428,-78 252,-78"/>
</g>
<g id="clust7" class="cluster">
<title>cluster_Skeleton1Module_providers</title>
<polygon fill="none" stroke="#000000" points="16,-78 16,-130 244,-130 244,-78 16,-78"/>
</g>
<!-- Skeleton1DetailsComponent -->
<g id="node1" class="node">
<title>Skeleton1DetailsComponent</title>
<polygon fill="#ffffb3" stroke="#000000" points="620.4776,-122 443.5224,-122 443.5224,-86 620.4776,-86 620.4776,-122"/>
<text text-anchor="middle" x="532" y="-99.8" font-family="Times,serif" font-size="14.00" fill="#000000">Skeleton1DetailsComponent</text>
</g>
<!-- Skeleton1Module -->
<g id="node2" class="node">
<title>Skeleton1Module</title>
<polygon fill="#8dd3c7" stroke="#000000" points="397.5437,-187 394.5437,-191 373.5437,-191 370.5437,-187 282.4563,-187 282.4563,-151 397.5437,-151 397.5437,-187"/>
<text text-anchor="middle" x="340" y="-164.8" font-family="Times,serif" font-size="14.00" fill="#000000">Skeleton1Module</text>
</g>
<!-- Skeleton1DetailsComponent&#45;&gt;Skeleton1Module -->
<g id="edge1" class="edge">
<title>Skeleton1DetailsComponent&#45;&gt;Skeleton1Module</title>
<path fill="none" stroke="#000000" d="M532,-122.1061C532,-141.3391 532,-169 532,-169 532,-169 407.6063,-169 407.6063,-169"/>
<polygon fill="#000000" stroke="#000000" points="407.6064,-165.5001 397.6063,-169 407.6063,-172.5001 407.6064,-165.5001"/>
</g>
<!-- Skeleton1RoutingModule -->
<g id="node3" class="node">
<title>Skeleton1RoutingModule</title>
<polygon fill="#8dd3c7" stroke="#000000" points="420.161,-122 417.161,-126 396.161,-126 393.161,-122 259.839,-122 259.839,-86 420.161,-86 420.161,-122"/>
<text text-anchor="middle" x="340" y="-99.8" font-family="Times,serif" font-size="14.00" fill="#000000">Skeleton1RoutingModule</text>
</g>
<!-- Skeleton1RoutingModule&#45;&gt;Skeleton1Module -->
<g id="edge2" class="edge">
<title>Skeleton1RoutingModule&#45;&gt;Skeleton1Module</title>
<path fill="none" stroke="#000000" d="M340,-122.1061C340,-122.1061 340,-140.991 340,-140.991"/>
<polygon fill="#000000" stroke="#000000" points="336.5001,-140.9909 340,-150.991 343.5001,-140.991 336.5001,-140.9909"/>
</g>
<!-- Skeleton1DetailsService -->
<g id="node4" class="node">
<title>Skeleton1DetailsService</title>
<ellipse fill="#fdb462" stroke="#000000" cx="130" cy="-104" rx="105.9324" ry="18"/>
<text text-anchor="middle" x="130" y="-99.8" font-family="Times,serif" font-size="14.00" fill="#000000">Skeleton1DetailsService</text>
</g>
<!-- Skeleton1DetailsService&#45;&gt;Skeleton1Module -->
<g id="edge3" class="edge">
<title>Skeleton1DetailsService&#45;&gt;Skeleton1Module</title>
<path fill="none" stroke="#000000" d="M130,-122.1061C130,-141.3391 130,-169 130,-169 130,-169 272.3388,-169 272.3388,-169"/>
<polygon fill="#000000" stroke="#000000" points="272.3388,-172.5001 282.3388,-169 272.3388,-165.5001 272.3388,-172.5001"/>
</g>
</g>
</svg>
