<?xml version="1.0" encoding="UTF-8" standalone="no"?>
<!DOCTYPE svg PUBLIC "-//W3C//DTD SVG 1.1//EN"
 "http://www.w3.org/Graphics/SVG/1.1/DTD/svg11.dtd">
<!-- Generated by graphviz version 2.40.1 (20161225.0304)
 -->
<!-- Title: dependencies Pages: 1 -->
<svg width="504pt" height="284pt"
 viewBox="0.00 0.00 504.00 284.00" xmlns="http://www.w3.org/2000/svg" xmlns:xlink="http://www.w3.org/1999/xlink">
<g id="graph0" class="graph" transform="scale(1 1) rotate(0) translate(4 280)">
<title>dependencies</title>
<polygon fill="#ffffff" stroke="transparent" points="-4,4 -4,-280 500,-280 500,4 -4,4"/>
<text text-anchor="start" x="227.0091" y="-42.4" font-family="sans-serif" font-weight="bold" font-size="14.00" fill="#000000">Legend</text>
<polygon fill="#ffffb3" stroke="transparent" points="14,-10 14,-30 34,-30 34,-10 14,-10"/>
<text text-anchor="start" x="37.629" y="-15.4" font-family="sans-serif" font-size="14.00" fill="#000000"> &#160;Declarations</text>
<polygon fill="#8dd3c7" stroke="transparent" points="127,-10 127,-30 147,-30 147,-10 127,-10"/>
<text text-anchor="start" x="150.7251" y="-15.4" font-family="sans-serif" font-size="14.00" fill="#000000"> &#160;Module</text>
<polygon fill="#80b1d3" stroke="transparent" points="213,-10 213,-30 233,-30 233,-10 213,-10"/>
<text text-anchor="start" x="236.7812" y="-15.4" font-family="sans-serif" font-size="14.00" fill="#000000"> &#160;Bootstrap</text>
<polygon fill="#fdb462" stroke="transparent" points="310,-10 310,-30 330,-30 330,-10 310,-10"/>
<text text-anchor="start" x="333.6732" y="-15.4" font-family="sans-serif" font-size="14.00" fill="#000000"> &#160;Providers</text>
<polygon fill="#fb8072" stroke="transparent" points="406,-10 406,-30 426,-30 426,-10 406,-10"/>
<text text-anchor="start" x="429.7258" y="-15.4" font-family="sans-serif" font-size="14.00" fill="#000000"> &#160;Exports</text>
<g id="clust1" class="cluster">
<title>cluster_UtilsModule</title>
<polygon fill="none" stroke="#000000" stroke-dasharray="1,5" points="15.5,-70 15.5,-268 480.5,-268 480.5,-70 15.5,-70"/>
</g>
<g id="clust2" class="cluster">
<title>cluster_UtilsModule_declarations</title>
<polygon fill="none" stroke="#000000" points="161.5,-78 161.5,-130 472.5,-130 472.5,-78 161.5,-78"/>
</g>
<g id="clust7" class="cluster">
<title>cluster_UtilsModule_exports</title>
<polygon fill="none" stroke="#000000" points="103.5,-208 103.5,-260 425.5,-260 425.5,-208 103.5,-208"/>
</g>
<g id="clust9" class="cluster">
<title>cluster_UtilsModule_providers</title>
<polygon fill="none" stroke="#000000" points="23.5,-78 23.5,-130 153.5,-130 153.5,-78 23.5,-78"/>
</g>
<!-- TitleCasePipe -->
<g id="node1" class="node">
<title>TitleCasePipe</title>
<polygon fill="#ffffb3" stroke="#000000" points="464.5383,-122 370.4617,-122 370.4617,-86 464.5383,-86 464.5383,-122"/>
<text text-anchor="middle" x="417.5" y="-99.8" font-family="Times,serif" font-size="14.00" fill="#000000">TitleCasePipe</text>
</g>
<!-- UtilsModule -->
<g id="node4" class="node">
<title>UtilsModule</title>
<polygon fill="#8dd3c7" stroke="#000000" points="293.7731,-187 290.7731,-191 269.7731,-191 266.7731,-187 207.2269,-187 207.2269,-151 293.7731,-151 293.7731,-187"/>
<text text-anchor="middle" x="250.5" y="-164.8" font-family="Times,serif" font-size="14.00" fill="#000000">UtilsModule</text>
</g>
<!-- TitleCasePipe&#45;&gt;UtilsModule -->
<g id="edge1" class="edge">
<title>TitleCasePipe&#45;&gt;UtilsModule</title>
<path fill="none" stroke="#000000" d="M393.875,-122.0225C393.875,-139.3734 393.875,-163 393.875,-163 393.875,-163 303.9063,-163 303.9063,-163"/>
<polygon fill="#000000" stroke="#000000" points="303.9063,-159.5001 293.9063,-163 303.9063,-166.5001 303.9063,-159.5001"/>
</g>
<!-- CapitalizePipe -->
<g id="node2" class="node">
<title>CapitalizePipe</title>
<polygon fill="#ffffb3" stroke="#000000" points="352.1458,-122 254.8542,-122 254.8542,-86 352.1458,-86 352.1458,-122"/>
<text text-anchor="middle" x="303.5" y="-99.8" font-family="Times,serif" font-size="14.00" fill="#000000">CapitalizePipe</text>
</g>
<!-- CapitalizePipe&#45;&gt;UtilsModule -->
<g id="edge2" class="edge">
<title>CapitalizePipe&#45;&gt;UtilsModule</title>
<path fill="none" stroke="#000000" d="M274.2819,-122.1061C274.2819,-122.1061 274.2819,-140.991 274.2819,-140.991"/>
<polygon fill="#000000" stroke="#000000" points="270.782,-140.9909 274.2819,-150.991 277.782,-140.991 270.782,-140.9909"/>
</g>
<!-- DatePipe -->
<g id="node3" class="node">
<title>DatePipe</title>
<polygon fill="#ffffb3" stroke="#000000" points="237.3149,-122 169.6851,-122 169.6851,-86 237.3149,-86 237.3149,-122"/>
<text text-anchor="middle" x="203.5" y="-99.8" font-family="Times,serif" font-size="14.00" fill="#000000">DatePipe</text>
</g>
<!-- DatePipe&#45;&gt;UtilsModule -->
<g id="edge3" class="edge">
<title>DatePipe&#45;&gt;UtilsModule</title>
<path fill="none" stroke="#000000" d="M222.1354,-122.1061C222.1354,-122.1061 222.1354,-140.991 222.1354,-140.991"/>
<polygon fill="#000000" stroke="#000000" points="218.6354,-140.9909 222.1354,-150.991 225.6354,-140.991 218.6354,-140.9909"/>
</g>
<!-- TitleCasePipe  -->
<g id="node5" class="node">
<title>TitleCasePipe </title>
<polygon fill="#fb8072" stroke="#000000" points="417.5372,-252 319.4628,-252 319.4628,-216 417.5372,-216 417.5372,-252"/>
<text text-anchor="middle" x="368.5" y="-229.8" font-family="Times,serif" font-size="14.00" fill="#000000">TitleCasePipe </text>
</g>
<!-- UtilsModule&#45;&gt;TitleCasePipe  -->
<g id="edge4" class="edge">
<title>UtilsModule&#45;&gt;TitleCasePipe </title>
<path fill="none" stroke="#000000" stroke-dasharray="5,2" d="M293.9516,-175C315.049,-175 335.902,-175 335.902,-175 335.902,-175 335.902,-205.9775 335.902,-205.9775"/>
<polygon fill="#000000" stroke="#000000" points="332.4021,-205.9774 335.902,-215.9775 339.4021,-205.9775 332.4021,-205.9774"/>
</g>
<!-- CapitalizePipe  -->
<g id="node6" class="node">
<title>CapitalizePipe </title>
<polygon fill="#fb8072" stroke="#000000" points="301.1453,-252 199.8547,-252 199.8547,-216 301.1453,-216 301.1453,-252"/>
<text text-anchor="middle" x="250.5" y="-229.8" font-family="Times,serif" font-size="14.00" fill="#000000">CapitalizePipe </text>
</g>
<!-- UtilsModule&#45;&gt;CapitalizePipe  -->
<g id="edge5" class="edge">
<title>UtilsModule&#45;&gt;CapitalizePipe </title>
<path fill="none" stroke="#000000" stroke-dasharray="5,2" d="M250.5,-187.1061C250.5,-187.1061 250.5,-205.991 250.5,-205.991"/>
<polygon fill="#000000" stroke="#000000" points="247.0001,-205.9909 250.5,-215.991 254.0001,-205.991 247.0001,-205.9909"/>
</g>
<!-- DatePipe  -->
<g id="node7" class="node">
<title>DatePipe </title>
<polygon fill="#fb8072" stroke="#000000" points="181.8144,-252 111.1856,-252 111.1856,-216 181.8144,-216 181.8144,-252"/>
<text text-anchor="middle" x="146.5" y="-229.8" font-family="Times,serif" font-size="14.00" fill="#000000">DatePipe </text>
</g>
<!-- UtilsModule&#45;&gt;DatePipe  -->
<g id="edge6" class="edge">
<title>UtilsModule&#45;&gt;DatePipe </title>
<path fill="none" stroke="#000000" stroke-dasharray="5,2" d="M207.0903,-175C190.6734,-175 175.875,-175 175.875,-175 175.875,-175 175.875,-205.9775 175.875,-205.9775"/>
<polygon fill="#000000" stroke="#000000" points="172.3751,-205.9774 175.875,-215.9775 179.3751,-205.9775 172.3751,-205.9774"/>
</g>
<!-- HttpService -->
<g id="node8" class="node">
<title>HttpService</title>
<ellipse fill="#fdb462" stroke="#000000" cx="88.5" cy="-104" rx="57.3185" ry="18"/>
<text text-anchor="middle" x="88.5" y="-99.8" font-family="Times,serif" font-size="14.00" fill="#000000">HttpService</text>
</g>
<!-- HttpService&#45;&gt;UtilsModule -->
<g id="edge7" class="edge">
<title>HttpService&#45;&gt;UtilsModule</title>
<path fill="none" stroke="#000000" d="M128.376,-117.094C128.376,-134.4759 128.376,-163 128.376,-163 128.376,-163 197.0998,-163 197.0998,-163"/>
<polygon fill="#000000" stroke="#000000" points="197.0998,-166.5001 207.0998,-163 197.0997,-159.5001 197.0998,-166.5001"/>
</g>
</g>
</svg>
