<?xml version="1.0" encoding="UTF-8" standalone="no"?>
<!DOCTYPE svg PUBLIC "-//W3C//DTD SVG 1.1//EN"
 "http://www.w3.org/Graphics/SVG/1.1/DTD/svg11.dtd">
<!-- Generated by graphviz version 2.40.1 (20161225.0304)
 -->
<!-- Title: dependencies Pages: 1 -->
<svg width="2318pt" height="360pt"
 viewBox="0.00 0.00 2318.00 360.00" xmlns="http://www.w3.org/2000/svg" xmlns:xlink="http://www.w3.org/1999/xlink">
<g id="graph0" class="graph" transform="scale(1 1) rotate(0) translate(4 356)">
<title>dependencies</title>
<polygon fill="#ffffff" stroke="transparent" points="-4,4 -4,-356 2314,-356 2314,4 -4,4"/>
<text text-anchor="start" x="1134.0091" y="-42.4" font-family="sans-serif" font-weight="bold" font-size="14.00" fill="#000000">Legend</text>
<polygon fill="#ffffb3" stroke="transparent" points="921,-10 921,-30 941,-30 941,-10 921,-10"/>
<text text-anchor="start" x="944.629" y="-15.4" font-family="sans-serif" font-size="14.00" fill="#000000"> &#160;Declarations</text>
<polygon fill="#8dd3c7" stroke="transparent" points="1034,-10 1034,-30 1054,-30 1054,-10 1034,-10"/>
<text text-anchor="start" x="1057.7251" y="-15.4" font-family="sans-serif" font-size="14.00" fill="#000000"> &#160;Module</text>
<polygon fill="#80b1d3" stroke="transparent" points="1120,-10 1120,-30 1140,-30 1140,-10 1120,-10"/>
<text text-anchor="start" x="1143.7812" y="-15.4" font-family="sans-serif" font-size="14.00" fill="#000000"> &#160;Bootstrap</text>
<polygon fill="#fdb462" stroke="transparent" points="1217,-10 1217,-30 1237,-30 1237,-10 1217,-10"/>
<text text-anchor="start" x="1240.6732" y="-15.4" font-family="sans-serif" font-size="14.00" fill="#000000"> &#160;Providers</text>
<polygon fill="#fb8072" stroke="transparent" points="1313,-10 1313,-30 1333,-30 1333,-10 1313,-10"/>
<text text-anchor="start" x="1336.7258" y="-15.4" font-family="sans-serif" font-size="14.00" fill="#000000"> &#160;Exports</text>
<g id="clust1" class="cluster">
<title>cluster_AppModule</title>
<polygon fill="none" stroke="#000000" stroke-dasharray="1,5" points="644,-146 644,-344 1302,-344 1302,-146 644,-146"/>
</g>
<g id="clust2" class="cluster">
<title>cluster_AppModule_declarations</title>
<polygon fill="none" stroke="#000000" points="1172,-154 1172,-206 1294,-206 1294,-154 1172,-154"/>
</g>
<g id="clust4" class="cluster">
<title>cluster_AppModule_imports</title>
<polygon fill="none" stroke="#000000" points="652,-154 652,-206 1026,-206 1026,-154 652,-154"/>
</g>
<g id="clust6" class="cluster">
<title>cluster_AppModule_bootstrap</title>
<polygon fill="none" stroke="#000000" points="903,-284 903,-336 1027,-336 1027,-284 903,-284"/>
</g>
<g id="clust7" class="cluster">
<title>cluster_AppModule_providers</title>
<polygon fill="none" stroke="#000000" points="1034,-154 1034,-206 1164,-206 1164,-154 1034,-154"/>
</g>
<g id="clust14" class="cluster">
<title>cluster_NotFoundModule</title>
<polygon fill="none" stroke="#000000" stroke-dasharray="1,5" points="1310,-70 1310,-206 1666,-206 1666,-70 1310,-70"/>
</g>
<g id="clust15" class="cluster">
<title>cluster_NotFoundModule_declarations</title>
<polygon fill="none" stroke="#000000" points="1504,-78 1504,-130 1658,-130 1658,-78 1504,-78"/>
</g>
<g id="clust17" class="cluster">
<title>cluster_NotFoundModule_imports</title>
<polygon fill="none" stroke="#000000" points="1318,-78 1318,-130 1496,-130 1496,-78 1318,-78"/>
</g>
<g id="clust27" class="cluster">
<title>cluster_Skeleton1Module</title>
<polygon fill="none" stroke="#000000" stroke-dasharray="1,5" points="1674,-70 1674,-206 2302,-206 2302,-70 1674,-70"/>
</g>
<g id="clust28" class="cluster">
<title>cluster_Skeleton1Module_declarations</title>
<polygon fill="none" stroke="#000000" points="2102,-78 2102,-130 2294,-130 2294,-78 2102,-78"/>
</g>
<g id="clust30" class="cluster">
<title>cluster_Skeleton1Module_imports</title>
<polygon fill="none" stroke="#000000" points="1918,-78 1918,-130 2094,-130 2094,-78 1918,-78"/>
</g>
<g id="clust33" class="cluster">
<title>cluster_Skeleton1Module_providers</title>
<polygon fill="none" stroke="#000000" points="1682,-78 1682,-130 1910,-130 1910,-78 1682,-78"/>
</g>
<g id="clust40" class="cluster">
<title>cluster_Skeleton2Module</title>
<polygon fill="none" stroke="#000000" stroke-dasharray="1,5" points="8,-146 8,-271 636,-271 636,-146 8,-146"/>
</g>
<g id="clust41" class="cluster">
<title>cluster_Skeleton2Module_declarations</title>
<polygon fill="none" stroke="#000000" points="436,-154 436,-206 628,-206 628,-154 436,-154"/>
</g>
<g id="clust43" class="cluster">
<title>cluster_Skeleton2Module_imports</title>
<polygon fill="none" stroke="#000000" points="252,-154 252,-206 428,-206 428,-154 252,-154"/>
</g>
<g id="clust46" class="cluster">
<title>cluster_Skeleton2Module_providers</title>
<polygon fill="none" stroke="#000000" points="16,-154 16,-206 244,-206 244,-154 16,-154"/>
</g>
<g id="clust53" class="cluster">
<title>cluster_UtilsModule</title>
<polygon fill="none" stroke="#000000" stroke-dasharray="1,5" points="292,-70 292,-138 1087,-138 1087,-70 292,-70"/>
</g>
<g id="clust54" class="cluster">
<title>cluster_UtilsModule_declarations</title>
<polygon fill="none" stroke="#000000" points="768,-78 768,-130 1079,-130 1079,-78 768,-78"/>
</g>
<g id="clust59" class="cluster">
<title>cluster_UtilsModule_exports</title>
<polygon fill="none" stroke="#000000" points="438,-78 438,-130 760,-130 760,-78 438,-78"/>
</g>
<g id="clust61" class="cluster">
<title>cluster_UtilsModule_providers</title>
<polygon fill="none" stroke="#000000" points="300,-78 300,-130 430,-130 430,-78 300,-78"/>
</g>
<!-- AppComponent -->
<g id="node1" class="node">
<title>AppComponent</title>
<polygon fill="#ffffb3" stroke="#000000" points="1285.9399,-198 1180.0601,-198 1180.0601,-162 1285.9399,-162 1285.9399,-198"/>
<text text-anchor="middle" x="1233" y="-175.8" font-family="Times,serif" font-size="14.00" fill="#000000">AppComponent</text>
</g>
<!-- AppModule -->
<g id="node2" class="node">
<title>AppModule</title>
<polygon fill="#8dd3c7" stroke="#000000" points="1006.6571,-263 1003.6571,-267 982.6571,-267 979.6571,-263 923.3429,-263 923.3429,-227 1006.6571,-227 1006.6571,-263"/>
<text text-anchor="middle" x="965" y="-240.8" font-family="Times,serif" font-size="14.00" fill="#000000">AppModule</text>
</g>
<!-- AppComponent&#45;&gt;AppModule -->
<g id="edge1" class="edge">
<title>AppComponent&#45;&gt;AppModule</title>
<path fill="none" stroke="#000000" d="M1233,-198.2843C1233,-219.3211 1233,-251 1233,-251 1233,-251 1016.875,-251 1016.875,-251"/>
<polygon fill="#000000" stroke="#000000" points="1016.875,-247.5001 1006.875,-251 1016.875,-254.5001 1016.875,-247.5001"/>
</g>
<!-- AppComponent  -->
<g id="node6" class="node">
<title>AppComponent </title>
<polygon fill="#80b1d3" stroke="#000000" points="1019.439,-328 910.561,-328 910.561,-292 1019.439,-292 1019.439,-328"/>
<text text-anchor="middle" x="965" y="-305.8" font-family="Times,serif" font-size="14.00" fill="#000000">AppComponent </text>
</g>
<!-- AppModule&#45;&gt;AppComponent  -->
<g id="edge5" class="edge">
<title>AppModule&#45;&gt;AppComponent </title>
<path fill="none" stroke="#000000" stroke-dasharray="1,5" d="M965,-263.1061C965,-263.1061 965,-281.991 965,-281.991"/>
<polygon fill="#000000" stroke="#000000" points="961.5001,-281.9909 965,-291.991 968.5001,-281.991 961.5001,-281.9909"/>
</g>
<!-- AppRoutingModule -->
<g id="node3" class="node">
<title>AppRoutingModule</title>
<polygon fill="#8dd3c7" stroke="#000000" points="893.2744,-198 890.2744,-202 869.2744,-202 866.2744,-198 764.7256,-198 764.7256,-162 893.2744,-162 893.2744,-198"/>
<text text-anchor="middle" x="829" y="-175.8" font-family="Times,serif" font-size="14.00" fill="#000000">AppRoutingModule</text>
</g>
<!-- AppRoutingModule&#45;&gt;AppModule -->
<g id="edge2" class="edge">
<title>AppRoutingModule&#45;&gt;AppModule</title>
<path fill="none" stroke="#000000" d="M829,-198.1061C829,-217.3391 829,-245 829,-245 829,-245 913.0858,-245 913.0858,-245"/>
<polygon fill="#000000" stroke="#000000" points="913.0858,-248.5001 923.0858,-245 913.0858,-241.5001 913.0858,-248.5001"/>
</g>
<!-- UtilsModule -->
<g id="node4" class="node">
<title>UtilsModule</title>
<polygon fill="#8dd3c7" stroke="#000000" points="746.2731,-198 743.2731,-202 722.2731,-202 719.2731,-198 659.7269,-198 659.7269,-162 746.2731,-162 746.2731,-198"/>
<text text-anchor="middle" x="703" y="-175.8" font-family="Times,serif" font-size="14.00" fill="#000000">UtilsModule</text>
</g>
<!-- UtilsModule&#45;&gt;AppModule -->
<g id="edge3" class="edge">
<title>UtilsModule&#45;&gt;AppModule</title>
<path fill="none" stroke="#000000" d="M717.4621,-198.2921C717.4621,-220.2057 717.4621,-254 717.4621,-254 717.4621,-254 913.2885,-254 913.2885,-254"/>
<polygon fill="#000000" stroke="#000000" points="913.2885,-257.5001 923.2885,-254 913.2885,-250.5001 913.2885,-257.5001"/>
</g>
<!-- Skeleton2Module -->
<g id="node16" class="node">
<title>Skeleton2Module</title>
<polygon fill="#8dd3c7" stroke="#000000" points="493.5437,-263 490.5437,-267 469.5437,-267 466.5437,-263 378.4563,-263 378.4563,-227 493.5437,-227 493.5437,-263"/>
<text text-anchor="middle" x="436" y="-240.8" font-family="Times,serif" font-size="14.00" fill="#000000">Skeleton2Module</text>
</g>
<!-- UtilsModule&#45;&gt;Skeleton2Module -->
<g id="edge14" class="edge">
<title>UtilsModule&#45;&gt;Skeleton2Module</title>
<path fill="none" stroke="#000000" d="M688.5379,-198.027C688.5379,-214.3976 688.5379,-236 688.5379,-236 688.5379,-236 503.6207,-236 503.6207,-236"/>
<polygon fill="#000000" stroke="#000000" points="503.6208,-232.5001 493.6207,-236 503.6207,-239.5001 503.6208,-232.5001"/>
</g>
<!-- TitleCasePipe  -->
<g id="node22" class="node">
<title>TitleCasePipe </title>
<polygon fill="#fb8072" stroke="#000000" points="752.0372,-122 653.9628,-122 653.9628,-86 752.0372,-86 752.0372,-122"/>
<text text-anchor="middle" x="703" y="-99.8" font-family="Times,serif" font-size="14.00" fill="#000000">TitleCasePipe </text>
</g>
<!-- UtilsModule&#45;&gt;TitleCasePipe  -->
<g id="edge19" class="edge">
<title>UtilsModule&#45;&gt;TitleCasePipe </title>
<path fill="none" stroke="#000000" stroke-dasharray="5,2" d="M703,-161.9891C703,-161.9891 703,-132.145 703,-132.145"/>
<polygon fill="#000000" stroke="#000000" points="706.5001,-132.145 703,-122.145 699.5001,-132.1451 706.5001,-132.145"/>
</g>
<!-- CapitalizePipe  -->
<g id="node23" class="node">
<title>CapitalizePipe </title>
<polygon fill="#fb8072" stroke="#000000" points="635.6453,-122 534.3547,-122 534.3547,-86 635.6453,-86 635.6453,-122"/>
<text text-anchor="middle" x="585" y="-99.8" font-family="Times,serif" font-size="14.00" fill="#000000">CapitalizePipe </text>
</g>
<!-- UtilsModule&#45;&gt;CapitalizePipe  -->
<g id="edge20" class="edge">
<title>UtilsModule&#45;&gt;CapitalizePipe </title>
<path fill="none" stroke="#000000" stroke-dasharray="5,2" d="M659.39,-180C642.8974,-180 628.0307,-180 628.0307,-180 628.0307,-180 628.0307,-132.0109 628.0307,-132.0109"/>
<polygon fill="#000000" stroke="#000000" points="631.5308,-132.0109 628.0307,-122.0109 624.5308,-132.011 631.5308,-132.0109"/>
</g>
<!-- DatePipe  -->
<g id="node24" class="node">
<title>DatePipe </title>
<polygon fill="#fb8072" stroke="#000000" points="516.3144,-122 445.6856,-122 445.6856,-86 516.3144,-86 516.3144,-122"/>
<text text-anchor="middle" x="481" y="-99.8" font-family="Times,serif" font-size="14.00" fill="#000000">DatePipe </text>
</g>
<!-- UtilsModule&#45;&gt;DatePipe  -->
<g id="edge21" class="edge">
<title>UtilsModule&#45;&gt;DatePipe </title>
<path fill="none" stroke="#000000" stroke-dasharray="5,2" d="M688.5379,-161.9489C688.5379,-147.627 688.5379,-130 688.5379,-130 688.5379,-130 481,-130 481,-130 481,-130 481,-129.2058 481,-129.2058"/>
<polygon fill="#000000" stroke="#000000" points="484.5001,-132.0578 481,-122.0579 477.5001,-132.0579 484.5001,-132.0578"/>
</g>
<!-- Ng2Webstorage -->
<g id="node5" class="node">
<title>Ng2Webstorage</title>
<polygon fill="#8dd3c7" stroke="#000000" points="1018.4608,-198 1015.4608,-202 994.4608,-202 991.4608,-198 911.5392,-198 911.5392,-162 1018.4608,-162 1018.4608,-198"/>
<text text-anchor="middle" x="965" y="-175.8" font-family="Times,serif" font-size="14.00" fill="#000000">Ng2Webstorage</text>
</g>
<!-- Ng2Webstorage&#45;&gt;AppModule -->
<g id="edge4" class="edge">
<title>Ng2Webstorage&#45;&gt;AppModule</title>
<path fill="none" stroke="#000000" d="M965,-198.1061C965,-198.1061 965,-216.991 965,-216.991"/>
<polygon fill="#000000" stroke="#000000" points="961.5001,-216.9909 965,-226.991 968.5001,-216.991 961.5001,-216.9909"/>
</g>
<!-- AppService -->
<g id="node7" class="node">
<title>AppService</title>
<ellipse fill="#fdb462" stroke="#000000" cx="1099" cy="-180" rx="56.7406" ry="18"/>
<text text-anchor="middle" x="1099" y="-175.8" font-family="Times,serif" font-size="14.00" fill="#000000">AppService</text>
</g>
<!-- AppService&#45;&gt;AppModule -->
<g id="edge6" class="edge">
<title>AppService&#45;&gt;AppModule</title>
<path fill="none" stroke="#000000" d="M1099,-198.0225C1099,-215.3734 1099,-239 1099,-239 1099,-239 1016.6639,-239 1016.6639,-239"/>
<polygon fill="#000000" stroke="#000000" points="1016.6639,-235.5001 1006.6639,-239 1016.6639,-242.5001 1016.6639,-235.5001"/>
</g>
<!-- NotFoundComponent -->
<g id="node8" class="node">
<title>NotFoundComponent</title>
<polygon fill="#ffffb3" stroke="#000000" points="1650.1122,-122 1511.8878,-122 1511.8878,-86 1650.1122,-86 1650.1122,-122"/>
<text text-anchor="middle" x="1581" y="-99.8" font-family="Times,serif" font-size="14.00" fill="#000000">NotFoundComponent</text>
</g>
<!-- NotFoundModule -->
<g id="node9" class="node">
<title>NotFoundModule</title>
<polygon fill="#8dd3c7" stroke="#000000" points="1552.3301,-198 1549.3301,-202 1528.3301,-202 1525.3301,-198 1435.6699,-198 1435.6699,-162 1552.3301,-162 1552.3301,-198"/>
<text text-anchor="middle" x="1494" y="-175.8" font-family="Times,serif" font-size="14.00" fill="#000000">NotFoundModule</text>
</g>
<!-- NotFoundComponent&#45;&gt;NotFoundModule -->
<g id="edge7" class="edge">
<title>NotFoundComponent&#45;&gt;NotFoundModule</title>
<path fill="none" stroke="#000000" d="M1532.0543,-122.0109C1532.0543,-122.0109 1532.0543,-151.855 1532.0543,-151.855"/>
<polygon fill="#000000" stroke="#000000" points="1528.5544,-151.8549 1532.0543,-161.855 1535.5544,-151.855 1528.5544,-151.8549"/>
</g>
<!-- NotFoundRoutingModule -->
<g id="node10" class="node">
<title>NotFoundRoutingModule</title>
<polygon fill="#8dd3c7" stroke="#000000" points="1487.948,-122 1484.948,-126 1463.948,-126 1460.948,-122 1326.052,-122 1326.052,-86 1487.948,-86 1487.948,-122"/>
<text text-anchor="middle" x="1407" y="-99.8" font-family="Times,serif" font-size="14.00" fill="#000000">NotFoundRoutingModule</text>
</g>
<!-- NotFoundRoutingModule&#45;&gt;NotFoundModule -->
<g id="edge8" class="edge">
<title>NotFoundRoutingModule&#45;&gt;NotFoundModule</title>
<path fill="none" stroke="#000000" d="M1461.7795,-122.0109C1461.7795,-122.0109 1461.7795,-151.855 1461.7795,-151.855"/>
<polygon fill="#000000" stroke="#000000" points="1458.2795,-151.8549 1461.7795,-161.855 1465.2795,-151.855 1458.2795,-151.8549"/>
</g>
<!-- Skeleton1DetailsComponent -->
<g id="node11" class="node">
<title>Skeleton1DetailsComponent</title>
<polygon fill="#ffffb3" stroke="#000000" points="2286.4776,-122 2109.5224,-122 2109.5224,-86 2286.4776,-86 2286.4776,-122"/>
<text text-anchor="middle" x="2198" y="-99.8" font-family="Times,serif" font-size="14.00" fill="#000000">Skeleton1DetailsComponent</text>
</g>
<!-- Skeleton1Module -->
<g id="node12" class="node">
<title>Skeleton1Module</title>
<polygon fill="#8dd3c7" stroke="#000000" points="2063.5437,-198 2060.5437,-202 2039.5437,-202 2036.5437,-198 1948.4563,-198 1948.4563,-162 2063.5437,-162 2063.5437,-198"/>
<text text-anchor="middle" x="2006" y="-175.8" font-family="Times,serif" font-size="14.00" fill="#000000">Skeleton1Module</text>
</g>
<!-- Skeleton1DetailsComponent&#45;&gt;Skeleton1Module -->
<g id="edge9" class="edge">
<title>Skeleton1DetailsComponent&#45;&gt;Skeleton1Module</title>
<path fill="none" stroke="#000000" d="M2198,-122.0109C2198,-144.4852 2198,-180 2198,-180 2198,-180 2073.6063,-180 2073.6063,-180"/>
<polygon fill="#000000" stroke="#000000" points="2073.6064,-176.5001 2063.6063,-180 2073.6063,-183.5001 2073.6064,-176.5001"/>
</g>
<!-- Skeleton1RoutingModule -->
<g id="node13" class="node">
<title>Skeleton1RoutingModule</title>
<polygon fill="#8dd3c7" stroke="#000000" points="2086.161,-122 2083.161,-126 2062.161,-126 2059.161,-122 1925.839,-122 1925.839,-86 2086.161,-86 2086.161,-122"/>
<text text-anchor="middle" x="2006" y="-99.8" font-family="Times,serif" font-size="14.00" fill="#000000">Skeleton1RoutingModule</text>
</g>
<!-- Skeleton1RoutingModule&#45;&gt;Skeleton1Module -->
<g id="edge10" class="edge">
<title>Skeleton1RoutingModule&#45;&gt;Skeleton1Module</title>
<path fill="none" stroke="#000000" d="M2006,-122.0109C2006,-122.0109 2006,-151.855 2006,-151.855"/>
<polygon fill="#000000" stroke="#000000" points="2002.5001,-151.8549 2006,-161.855 2009.5001,-151.855 2002.5001,-151.8549"/>
</g>
<!-- Skeleton1DetailsService -->
<g id="node14" class="node">
<title>Skeleton1DetailsService</title>
<ellipse fill="#fdb462" stroke="#000000" cx="1796" cy="-104" rx="105.9324" ry="18"/>
<text text-anchor="middle" x="1796" y="-99.8" font-family="Times,serif" font-size="14.00" fill="#000000">Skeleton1DetailsService</text>
</g>
<!-- Skeleton1DetailsService&#45;&gt;Skeleton1Module -->
<g id="edge11" class="edge">
<title>Skeleton1DetailsService&#45;&gt;Skeleton1Module</title>
<path fill="none" stroke="#000000" d="M1796,-122.0109C1796,-144.4852 1796,-180 1796,-180 1796,-180 1938.3388,-180 1938.3388,-180"/>
<polygon fill="#000000" stroke="#000000" points="1938.3388,-183.5001 1948.3388,-180 1938.3388,-176.5001 1938.3388,-183.5001"/>
</g>
<!-- Skeleton2DetailsComponent -->
<g id="node15" class="node">
<title>Skeleton2DetailsComponent</title>
<polygon fill="#ffffb3" stroke="#000000" points="620.4776,-198 443.5224,-198 443.5224,-162 620.4776,-162 620.4776,-198"/>
<text text-anchor="middle" x="532" y="-175.8" font-family="Times,serif" font-size="14.00" fill="#000000">Skeleton2DetailsComponent</text>
</g>
<!-- Skeleton2DetailsComponent&#45;&gt;Skeleton2Module -->
<g id="edge12" class="edge">
<title>Skeleton2DetailsComponent&#45;&gt;Skeleton2Module</title>
<path fill="none" stroke="#000000" d="M468.6413,-198.1061C468.6413,-198.1061 468.6413,-216.991 468.6413,-216.991"/>
<polygon fill="#000000" stroke="#000000" points="465.1414,-216.9909 468.6413,-226.991 472.1414,-216.991 465.1414,-216.9909"/>
</g>
<!-- Skeleton2RoutingModule -->
<g id="node17" class="node">
<title>Skeleton2RoutingModule</title>
<polygon fill="#8dd3c7" stroke="#000000" points="420.161,-198 417.161,-202 396.161,-202 393.161,-198 259.839,-198 259.839,-162 420.161,-162 420.161,-198"/>
<text text-anchor="middle" x="340" y="-175.8" font-family="Times,serif" font-size="14.00" fill="#000000">Skeleton2RoutingModule</text>
</g>
<!-- Skeleton2RoutingModule&#45;&gt;Skeleton2Module -->
<g id="edge13" class="edge">
<title>Skeleton2RoutingModule&#45;&gt;Skeleton2Module</title>
<path fill="none" stroke="#000000" d="M399.2795,-198.1061C399.2795,-198.1061 399.2795,-216.991 399.2795,-216.991"/>
<polygon fill="#000000" stroke="#000000" points="395.7795,-216.9909 399.2795,-226.991 402.7795,-216.991 395.7795,-216.9909"/>
</g>
<!-- Skeleton2DetailsService -->
<g id="node18" class="node">
<title>Skeleton2DetailsService</title>
<ellipse fill="#fdb462" stroke="#000000" cx="130" cy="-180" rx="105.9324" ry="18"/>
<text text-anchor="middle" x="130" y="-175.8" font-family="Times,serif" font-size="14.00" fill="#000000">Skeleton2DetailsService</text>
</g>
<!-- Skeleton2DetailsService&#45;&gt;Skeleton2Module -->
<g id="edge15" class="edge">
<title>Skeleton2DetailsService&#45;&gt;Skeleton2Module</title>
<path fill="none" stroke="#000000" d="M130,-198.1061C130,-217.3391 130,-245 130,-245 130,-245 368.4437,-245 368.4437,-245"/>
<polygon fill="#000000" stroke="#000000" points="368.4438,-248.5001 378.4437,-245 368.4437,-241.5001 368.4438,-248.5001"/>
</g>
<!-- TitleCasePipe -->
<g id="node19" class="node">
<title>TitleCasePipe</title>
<polygon fill="#ffffb3" stroke="#000000" points="1071.0383,-122 976.9617,-122 976.9617,-86 1071.0383,-86 1071.0383,-122"/>
<text text-anchor="middle" x="1024" y="-99.8" font-family="Times,serif" font-size="14.00" fill="#000000">TitleCasePipe</text>
</g>
<!-- TitleCasePipe&#45;&gt;UtilsModule -->
<g id="edge16" class="edge">
<title>TitleCasePipe&#45;&gt;UtilsModule</title>
<path fill="none" stroke="#000000" d="M997.6059,-122.0511C997.6059,-136.373 997.6059,-154 997.6059,-154 997.6059,-154 731.9243,-154 731.9243,-154 731.9243,-154 731.9243,-154.7942 731.9243,-154.7942"/>
<polygon fill="#000000" stroke="#000000" points="728.4244,-151.9421 731.9243,-161.9421 735.4244,-151.9422 728.4244,-151.9421"/>
</g>
<!-- CapitalizePipe -->
<g id="node20" class="node">
<title>CapitalizePipe</title>
<polygon fill="#ffffb3" stroke="#000000" points="958.6458,-122 861.3542,-122 861.3542,-86 958.6458,-86 958.6458,-122"/>
<text text-anchor="middle" x="910" y="-99.8" font-family="Times,serif" font-size="14.00" fill="#000000">CapitalizePipe</text>
</g>
<!-- CapitalizePipe&#45;&gt;UtilsModule -->
<g id="edge17" class="edge">
<title>CapitalizePipe&#45;&gt;UtilsModule</title>
<path fill="none" stroke="#000000" d="M877.2823,-122.0555C877.2823,-133.439 877.2823,-146 877.2823,-146 877.2823,-146 717.4621,-146 717.4621,-146 717.4621,-146 717.4621,-151.8056 717.4621,-151.8056"/>
<polygon fill="#000000" stroke="#000000" points="713.9622,-151.8055 717.4621,-161.8056 720.9622,-151.8056 713.9622,-151.8055"/>
</g>
<!-- DatePipe -->
<g id="node21" class="node">
<title>DatePipe</title>
<polygon fill="#ffffb3" stroke="#000000" points="843.8149,-122 776.1851,-122 776.1851,-86 843.8149,-86 843.8149,-122"/>
<text text-anchor="middle" x="810" y="-99.8" font-family="Times,serif" font-size="14.00" fill="#000000">DatePipe</text>
</g>
<!-- DatePipe&#45;&gt;UtilsModule -->
<g id="edge18" class="edge">
<title>DatePipe&#45;&gt;UtilsModule</title>
<path fill="none" stroke="#000000" d="M776.1025,-104C766.3607,-104 758.3158,-104 758.3158,-104 758.3158,-104 758.3158,-180 758.3158,-180 758.3158,-180 756.3131,-180 756.3131,-180"/>
<polygon fill="#000000" stroke="#000000" points="756.3131,-176.5001 746.3131,-180 756.313,-183.5001 756.3131,-176.5001"/>
</g>
<!-- HttpService -->
<g id="node25" class="node">
<title>HttpService</title>
<ellipse fill="#fdb462" stroke="#000000" cx="365" cy="-104" rx="57.3185" ry="18"/>
<text text-anchor="middle" x="365" y="-99.8" font-family="Times,serif" font-size="14.00" fill="#000000">HttpService</text>
</g>
<!-- HttpService&#45;&gt;UtilsModule -->
<g id="edge22" class="edge">
<title>HttpService&#45;&gt;UtilsModule</title>
<path fill="none" stroke="#000000" d="M364.0856,-122.1944C364.0856,-130.2782 364.0856,-138 364.0856,-138 364.0856,-138 674.0757,-138 674.0757,-138 674.0757,-138 674.0757,-151.9445 674.0757,-151.9445"/>
<polygon fill="#000000" stroke="#000000" points="670.5758,-151.9444 674.0757,-161.9445 677.5758,-151.9445 670.5758,-151.9444"/>
</g>
</g>
</svg>
