<?xml version="1.0" encoding="UTF-8" standalone="no"?>
<!DOCTYPE svg PUBLIC "-//W3C//DTD SVG 1.1//EN"
 "http://www.w3.org/Graphics/SVG/1.1/DTD/svg11.dtd">
<!-- Generated by graphviz version 2.40.1 (20161225.0304)
 -->
<!-- Title: dependencies Pages: 1 -->
<svg width="757pt" height="211pt"
 viewBox="0.00 0.00 757.00 211.00" xmlns="http://www.w3.org/2000/svg" xmlns:xlink="http://www.w3.org/1999/xlink">
<g id="graph0" class="graph" transform="scale(1 1) rotate(0) translate(4 207)">
<title>dependencies</title>
<polygon fill="#ffffff" stroke="transparent" points="-4,4 -4,-207 753,-207 753,4 -4,4"/>
<text text-anchor="start" x="353.5091" y="-42.4" font-family="sans-serif" font-weight="bold" font-size="14.00" fill="#000000">Legend</text>
<polygon fill="#ffffb3" stroke="transparent" points="140.5,-10 140.5,-30 160.5,-30 160.5,-10 140.5,-10"/>
<text text-anchor="start" x="164.129" y="-15.4" font-family="sans-serif" font-size="14.00" fill="#000000"> &#160;Declarations</text>
<polygon fill="#8dd3c7" stroke="transparent" points="253.5,-10 253.5,-30 273.5,-30 273.5,-10 253.5,-10"/>
<text text-anchor="start" x="277.2251" y="-15.4" font-family="sans-serif" font-size="14.00" fill="#000000"> &#160;Module</text>
<polygon fill="#80b1d3" stroke="transparent" points="339.5,-10 339.5,-30 359.5,-30 359.5,-10 339.5,-10"/>
<text text-anchor="start" x="363.2812" y="-15.4" font-family="sans-serif" font-size="14.00" fill="#000000"> &#160;Bootstrap</text>
<polygon fill="#fdb462" stroke="transparent" points="436.5,-10 436.5,-30 456.5,-30 456.5,-10 436.5,-10"/>
<text text-anchor="start" x="460.1732" y="-15.4" font-family="sans-serif" font-size="14.00" fill="#000000"> &#160;Providers</text>
<polygon fill="#fb8072" stroke="transparent" points="532.5,-10 532.5,-30 552.5,-30 552.5,-10 532.5,-10"/>
<text text-anchor="start" x="556.2258" y="-15.4" font-family="sans-serif" font-size="14.00" fill="#000000"> &#160;Exports</text>
<g id="clust1" class="cluster">
<title>cluster_Skeleton2Module</title>
<polygon fill="none" stroke="#000000" stroke-dasharray="1,5" points="8,-70 8,-195 741,-195 741,-70 8,-70"/>
</g>
<g id="clust2" class="cluster">
<title>cluster_Skeleton2Module_declarations</title>
<polygon fill="none" stroke="#000000" points="541,-78 541,-130 733,-130 733,-78 541,-78"/>
</g>
<g id="clust4" class="cluster">
<title>cluster_Skeleton2Module_imports</title>
<polygon fill="none" stroke="#000000" points="252,-78 252,-130 533,-130 533,-78 252,-78"/>
</g>
<g id="clust7" class="cluster">
<title>cluster_Skeleton2Module_providers</title>
<polygon fill="none" stroke="#000000" points="16,-78 16,-130 244,-130 244,-78 16,-78"/>
</g>
<!-- Skeleton2DetailsComponent -->
<g id="node1" class="node">
<title>Skeleton2DetailsComponent</title>
<polygon fill="#ffffb3" stroke="#000000" points="725.4776,-122 548.5224,-122 548.5224,-86 725.4776,-86 725.4776,-122"/>
<text text-anchor="middle" x="637" y="-99.8" font-family="Times,serif" font-size="14.00" fill="#000000">Skeleton2DetailsComponent</text>
</g>
<!-- Skeleton2Module -->
<g id="node2" class="node">
<title>Skeleton2Module</title>
<polygon fill="#8dd3c7" stroke="#000000" points="431.5437,-187 428.5437,-191 407.5437,-191 404.5437,-187 316.4563,-187 316.4563,-151 431.5437,-151 431.5437,-187"/>
<text text-anchor="middle" x="374" y="-164.8" font-family="Times,serif" font-size="14.00" fill="#000000">Skeleton2Module</text>
</g>
<!-- Skeleton2DetailsComponent&#45;&gt;Skeleton2Module -->
<g id="edge1" class="edge">
<title>Skeleton2DetailsComponent&#45;&gt;Skeleton2Module</title>
<path fill="none" stroke="#000000" d="M637,-122.1061C637,-141.3391 637,-169 637,-169 637,-169 441.7165,-169 441.7165,-169"/>
<polygon fill="#000000" stroke="#000000" points="441.7165,-165.5001 431.7165,-169 441.7164,-172.5001 441.7165,-165.5001"/>
</g>
<!-- Skeleton2RoutingModule -->
<g id="node3" class="node">
<title>Skeleton2RoutingModule</title>
<polygon fill="#8dd3c7" stroke="#000000" points="525.161,-122 522.161,-126 501.161,-126 498.161,-122 364.839,-122 364.839,-86 525.161,-86 525.161,-122"/>
<text text-anchor="middle" x="445" y="-99.8" font-family="Times,serif" font-size="14.00" fill="#000000">Skeleton2RoutingModule</text>
</g>
<!-- Skeleton2RoutingModule&#45;&gt;Skeleton2Module -->
<g id="edge2" class="edge">
<title>Skeleton2RoutingModule&#45;&gt;Skeleton2Module</title>
<path fill="none" stroke="#000000" d="M398.2206,-122.1061C398.2206,-122.1061 398.2206,-140.991 398.2206,-140.991"/>
<polygon fill="#000000" stroke="#000000" points="394.7206,-140.9909 398.2206,-150.991 401.7206,-140.991 394.7206,-140.9909"/>
</g>
<!-- UtilsModule -->
<g id="node4" class="node">
<title>UtilsModule</title>
<polygon fill="#8dd3c7" stroke="#000000" points="346.2731,-122 343.2731,-126 322.2731,-126 319.2731,-122 259.7269,-122 259.7269,-86 346.2731,-86 346.2731,-122"/>
<text text-anchor="middle" x="303" y="-99.8" font-family="Times,serif" font-size="14.00" fill="#000000">UtilsModule</text>
</g>
<!-- UtilsModule&#45;&gt;Skeleton2Module -->
<g id="edge3" class="edge">
<title>UtilsModule&#45;&gt;Skeleton2Module</title>
<path fill="none" stroke="#000000" d="M331.3075,-122.1061C331.3075,-122.1061 331.3075,-140.991 331.3075,-140.991"/>
<polygon fill="#000000" stroke="#000000" points="327.8076,-140.9909 331.3075,-150.991 334.8076,-140.991 327.8076,-140.9909"/>
</g>
<!-- Skeleton2DetailsService -->
<g id="node5" class="node">
<title>Skeleton2DetailsService</title>
<ellipse fill="#fdb462" stroke="#000000" cx="130" cy="-104" rx="105.9324" ry="18"/>
<text text-anchor="middle" x="130" y="-99.8" font-family="Times,serif" font-size="14.00" fill="#000000">Skeleton2DetailsService</text>
</g>
<!-- Skeleton2DetailsService&#45;&gt;Skeleton2Module -->
<g id="edge4" class="edge">
<title>Skeleton2DetailsService&#45;&gt;Skeleton2Module</title>
<path fill="none" stroke="#000000" d="M130,-122.1061C130,-141.3391 130,-169 130,-169 130,-169 306.1754,-169 306.1754,-169"/>
<polygon fill="#000000" stroke="#000000" points="306.1754,-172.5001 316.1754,-169 306.1754,-165.5001 306.1754,-172.5001"/>
</g>
</g>
</svg>
